<?xml version="1.0" encoding="UTF-8" standalone="no"?>
<!-- Created with Inkscape (http://www.inkscape.org/) -->

<svg
   xmlns:dc="http://purl.org/dc/elements/1.1/"
   xmlns:cc="http://creativecommons.org/ns#"
   xmlns:rdf="http://www.w3.org/1999/02/22-rdf-syntax-ns#"
   xmlns:svg="http://www.w3.org/2000/svg"
   xmlns="http://www.w3.org/2000/svg"
   xmlns:xlink="http://www.w3.org/1999/xlink"
   xmlns:sodipodi="http://sodipodi.sourceforge.net/DTD/sodipodi-0.dtd"
   xmlns:inkscape="http://www.inkscape.org/namespaces/inkscape"
   version="1.1"
   id="svg2"
   xml:space="preserve"
   width="61"
   height="61"
   viewBox="0 0 61 61"
   sodipodi:docname="codepen.svg"
   inkscape:version="0.92.4 (5da689c313, 2019-01-14)"><metadata
     id="metadata8"><rdf:RDF><cc:Work
         rdf:about=""><dc:format>image/svg+xml</dc:format><dc:type
           rdf:resource="http://purl.org/dc/dcmitype/StillImage" /><dc:title></dc:title></cc:Work></rdf:RDF></metadata><defs
     id="defs6"><linearGradient
       inkscape:collect="always"
       id="linearGradient4695"><stop
         style="stop-color:#ffffff;stop-opacity:1"
         offset="0"
         id="stop4691" /><stop
         style="stop-color:#a7a7a7;stop-opacity:1"
         offset="1"
         id="stop4693" /></linearGradient><clipPath
       clipPathUnits="userSpaceOnUse"
       id="clipPath44"><path
         d="M 0,500 H 500 V 0 H 0 Z"
         id="path42"
         inkscape:connector-curvature="0" /></clipPath><linearGradient
       inkscape:collect="always"
       xlink:href="#linearGradient4695"
       id="linearGradient4697"
       x1="90.461555"
       y1="424.88086"
       x2="484.16843"
       y2="17.586226"
       gradientUnits="userSpaceOnUse" /><linearGradient
       gradientTransform="matrix(7.9599242,0,0,-7.9599242,-24.742863,1286.1741)"
       id="paint1_linear"
       x1="26.376699"
       y1="24.5613"
       x2="60.245201"
       y2="58.429901"
       gradientUnits="userSpaceOnUse"><stop
         stop-color="#1A1A1A"
         id="stop13" /><stop
         offset="1"
         stop-color="#1A1A1A"
         stop-opacity="0"
         id="stop15" /></linearGradient><linearGradient
       inkscape:collect="always"
       xlink:href="#linearGradient4695"
       id="linearGradient4841"
       gradientUnits="userSpaceOnUse"
       x1="90.461555"
       y1="424.88086"
       x2="484.16843"
       y2="17.586226" /><linearGradient
       inkscape:collect="always"
       xlink:href="#linearGradient4695"
       id="linearGradient4843"
       gradientUnits="userSpaceOnUse"
       x1="90.461555"
       y1="424.88086"
       x2="484.16843"
       y2="17.586226" /><linearGradient
       inkscape:collect="always"
       xlink:href="#linearGradient4695"
       id="linearGradient4845"
       gradientUnits="userSpaceOnUse"
       x1="90.461555"
       y1="424.88086"
       x2="484.16843"
       y2="17.586226" /><linearGradient
       inkscape:collect="always"
       xlink:href="#linearGradient4695"
       id="linearGradient4847"
       gradientUnits="userSpaceOnUse"
       x1="90.461555"
       y1="424.88086"
       x2="484.16843"
       y2="17.586226" /><linearGradient
       inkscape:collect="always"
       xlink:href="#linearGradient4695"
       id="linearGradient4849"
       gradientUnits="userSpaceOnUse"
       x1="90.461555"
       y1="424.88086"
       x2="484.16843"
       y2="17.586226" /></defs><sodipodi:namedview
     pagecolor="#474747"
     bordercolor="#666666"
     borderopacity="1"
     objecttolerance="10"
     gridtolerance="10"
     guidetolerance="10"
     inkscape:pageopacity="0"
     inkscape:pageshadow="2"
     inkscape:window-width="1920"
     inkscape:window-height="1017"
     id="namedview4"
     showgrid="false"
     inkscape:object-paths="true"
     inkscape:zoom="5.6639998"
     inkscape:cx="-9.2022297"
     inkscape:cy="32.741827"
     inkscape:window-x="-8"
     inkscape:window-y="-8"
     inkscape:window-maximized="1"
     inkscape:current-layer="g10" /><g
     id="g10"
     inkscape:groupmode="layer"
     inkscape:label="Button-Fill-White"
     transform="matrix(1.3333333,0,0,-1.3333333,0,60.999983)"><g
       id="g4839"
       transform="matrix(0.11140312,0,0,0.11140312,-2.1861506,-59.27062)"><path
         d="M 86.132732,595.65128 H 366.70714 v 280.575 H 86.132732 Z"
         style="fill:#231f20;fill-opacity:1;fill-rule:nonzero;stroke:none;stroke-width:0.56114942"
         id="path4761"
         inkscape:connector-curvature="0" /><path
         inkscape:connector-curvature="0"
         id="path12"
         style="fill:#231f20;fill-opacity:1;fill-rule:nonzero;stroke:none;stroke-width:0.56114942"
         d="M 86.132732,595.65128 H 366.70714 v 280.575 H 86.132732 Z" /><g
         style="fill:url(#linearGradient4697);fill-opacity:1"
         transform="matrix(0.86805132,0,0,0.86805315,9.4071053,518.92549)"
         id="g38"><g
           style="fill:url(#linearGradient4849);fill-opacity:1"
           clip-path="url(#clipPath44)"
           id="g40"><g
             style="fill:url(#linearGradient4843);fill-opacity:1"
             transform="translate(397.3311,207.7324)"
             id="g46"><path
               inkscape:connector-curvature="0"
               id="path48"
               style="fill:url(#linearGradient4841);fill-opacity:1;fill-rule:nonzero;stroke:none"
               d="m 0,0 c 0,-0.554 -0.039,-1.1 -0.112,-1.646 -0.027,-0.177 -0.07,-0.362 -0.1,-0.539 -0.065,-0.354 -0.127,-0.708 -0.22,-1.054 -0.053,-0.208 -0.13,-0.407 -0.196,-0.608 -0.1,-0.307 -0.199,-0.616 -0.322,-0.924 -0.085,-0.207 -0.19,-0.407 -0.281,-0.607 -0.135,-0.285 -0.274,-0.561 -0.427,-0.839 -0.113,-0.192 -0.239,-0.385 -0.359,-0.577 -0.169,-0.262 -0.341,-0.516 -0.53,-0.762 -0.139,-0.192 -0.281,-0.369 -0.434,-0.546 -0.197,-0.23 -0.405,-0.461 -0.624,-0.676 -0.166,-0.17 -0.328,-0.339 -0.5,-0.493 -0.227,-0.208 -0.469,-0.408 -0.715,-0.6 -0.186,-0.147 -0.37,-0.293 -0.567,-0.431 -0.072,-0.047 -0.137,-0.108 -0.211,-0.154 l -133.687,-89.128 c -2.112,-1.408 -4.54,-2.115 -6.975,-2.115 -2.427,0 -4.859,0.707 -6.971,2.115 l -133.691,89.128 c -0.07,0.046 -0.135,0.107 -0.204,0.154 -0.197,0.138 -0.385,0.284 -0.57,0.431 -0.246,0.192 -0.485,0.392 -0.712,0.6 -0.173,0.154 -0.338,0.323 -0.504,0.493 -0.219,0.215 -0.422,0.446 -0.627,0.676 -0.146,0.177 -0.292,0.354 -0.43,0.546 -0.185,0.246 -0.362,0.5 -0.528,0.762 -0.127,0.192 -0.246,0.385 -0.361,0.577 -0.154,0.278 -0.292,0.554 -0.427,0.839 -0.096,0.2 -0.193,0.4 -0.281,0.607 -0.123,0.308 -0.227,0.617 -0.323,0.924 -0.069,0.201 -0.138,0.4 -0.196,0.608 -0.093,0.346 -0.154,0.7 -0.22,1.054 -0.03,0.177 -0.076,0.362 -0.1,0.539 -0.073,0.546 -0.115,1.092 -0.115,1.646 v 89.128 c 0,0.554 0.042,1.1 0.115,1.639 0.024,0.184 0.07,0.361 0.1,0.546 0.066,0.354 0.127,0.708 0.22,1.054 0.058,0.208 0.127,0.408 0.196,0.608 0.096,0.308 0.2,0.615 0.323,0.916 0.088,0.207 0.185,0.415 0.281,0.615 0.135,0.285 0.273,0.562 0.427,0.831 0.115,0.2 0.234,0.392 0.361,0.585 0.166,0.261 0.343,0.515 0.528,0.762 0.138,0.184 0.284,0.369 0.43,0.545 0.205,0.231 0.408,0.462 0.627,0.678 0.166,0.169 0.331,0.338 0.504,0.492 0.227,0.208 0.466,0.408 0.712,0.601 0.185,0.146 0.373,0.292 0.57,0.43 0.069,0.047 0.134,0.108 0.204,0.154 l 133.691,89.128 c 4.224,2.816 9.721,2.816 13.946,0 L -5.598,99.584 c 0.074,-0.046 0.139,-0.107 0.211,-0.154 0.197,-0.138 0.381,-0.284 0.567,-0.43 0.246,-0.193 0.488,-0.393 0.715,-0.601 0.172,-0.154 0.334,-0.323 0.5,-0.492 0.219,-0.216 0.427,-0.447 0.624,-0.678 0.153,-0.176 0.295,-0.361 0.434,-0.545 0.189,-0.247 0.361,-0.501 0.53,-0.762 0.12,-0.193 0.246,-0.385 0.359,-0.585 0.153,-0.269 0.292,-0.546 0.427,-0.831 0.091,-0.2 0.196,-0.408 0.281,-0.615 0.123,-0.301 0.222,-0.608 0.322,-0.916 0.066,-0.2 0.143,-0.4 0.196,-0.608 0.093,-0.346 0.155,-0.7 0.22,-1.054 0.03,-0.185 0.073,-0.362 0.1,-0.546 C -0.039,90.228 0,89.682 0,89.128 Z m -146.26,281.113 c -130.637,0 -236.546,-105.905 -236.546,-236.549 0,-130.645 105.909,-236.545 236.546,-236.545 130.645,0 236.549,105.9 236.549,236.545 0,130.644 -105.904,236.549 -236.549,236.549" /></g><g
             style="fill:url(#linearGradient4847);fill-opacity:1"
             transform="translate(372.1943,231.2607)"
             id="g50"><path
               inkscape:connector-curvature="0"
               id="path52"
               style="fill:url(#linearGradient4845);fill-opacity:1;fill-rule:nonzero;stroke:none"
               d="M 0,0 V 42.071 L -31.445,21.036 Z" /></g></g></g><g
         id="g4759"><g
           id="g14"
           transform="matrix(0.86805132,0,0,0.86805315,122.21142,756.19219)"><path
             d="m 0,0 v -42.071 l 31.45,21.035 z"
             style="fill:#ffffff;fill-opacity:1;fill-rule:nonzero;stroke:none"
             id="path16"
             inkscape:connector-curvature="0" /></g><g
           id="g18"
           transform="matrix(0.86805132,0,0,0.86805315,216.43943,782.70045)"><path
             d="m 0,0 v 58.628 l -98.487,-65.653 43.994,-29.43 z"
             style="fill:#ffffff;fill-opacity:1;fill-rule:nonzero;stroke:none"
             id="path20"
             inkscape:connector-curvature="0" /></g><g
           id="g22"
           transform="matrix(0.86805132,0,0,0.86805315,323.75531,776.60247)"><path
             d="M 0,0 -98.488,65.653 V 7.025 l 54.497,-36.455 z"
             style="fill:#ffffff;fill-opacity:1;fill-rule:nonzero;stroke:none"
             id="path24"
             inkscape:connector-curvature="0" /></g><g
           id="g26"
           transform="matrix(0.86805132,0,0,0.86805315,130.9474,699.2618)"><path
             d="M 0,0 98.487,-65.653 V -7.024 L 43.995,29.422 Z"
             style="fill:#ffffff;fill-opacity:1;fill-rule:nonzero;stroke:none"
             id="path28"
             inkscape:connector-curvature="0" /></g><g
           id="g30"
           transform="matrix(0.86805132,0,0,0.86805315,238.26241,693.16424)"><path
             d="M 0,0 V -58.629 L 98.488,7.024 54.497,36.446 Z"
             style="fill:#ffffff;fill-opacity:1;fill-rule:nonzero;stroke:none"
             id="path32"
             inkscape:connector-curvature="0" /></g><g
           id="g34"
           transform="matrix(0.86805132,0,0,0.86805315,227.34988,763.74573)"><path
             d="M 0,0 -44.457,-29.737 0,-59.475 44.46,-29.737 Z"
             style="fill:#ffffff;fill-opacity:1;fill-rule:nonzero;stroke:none"
             id="path36"
             inkscape:connector-curvature="0" /></g><g
           transform="matrix(-0.86805132,0,0,0.86805315,332.51485,756.19219)"
           id="g4733"><path
             inkscape:connector-curvature="0"
             id="path4731"
             style="fill:#ffffff;fill-opacity:1;fill-rule:nonzero;stroke:none"
             d="m 0,0 v -42.071 l 31.45,21.035 z" /></g></g></g></g></svg>