<svg width="60" height="60" viewBox="0 0 60 60" fill="none" xmlns="http://www.w3.org/2000/svg">
<path d="M60 30C60 33.9396 59.224 37.8407 57.7164 41.4805C56.2087 45.1203 53.999 48.4274 51.2132 51.2132C48.4274 53.9989 45.1203 56.2087 41.4805 57.7164C37.8407 59.224 33.9397 60 30 60C26.0603 60 22.1593 59.224 18.5195 57.7164C14.8797 56.2087 11.5726 53.9989 8.7868 51.2132C6.00104 48.4274 3.79126 45.1203 2.28362 41.4805C0.775974 37.8407 4.46701e-07 33.9396 0 30C0 26.0603 0.775973 22.1593 2.28361 18.5195C3.79126 14.8797 6.00104 11.5725 8.7868 8.78679C11.5726 6.00104 14.8797 3.79125 18.5195 2.28361C22.1593 0.775971 26.0603 -8.93401e-07 30 0C33.9397 -9.92668e-07 37.8407 0.775971 41.4805 2.28361C45.1203 3.79125 48.4274 6.00103 51.2132 8.78679C53.999 11.5725 56.2087 14.8797 57.7164 18.5195C59.224 22.1593 60 26.0603 60 30Z" fill="url(#paint0_linear)"/>
<path d="M37.102 16.5168L31.1611 19.4442L28.0219 28.4386L22.8979 31.2014L29.4243 37.7273L27.0975 43.6748L41.2256 57.8025C45.4526 56.0927 49.2343 53.4418 52.2832 50.0513C55.3321 46.6609 57.568 42.6201 58.8211 38.2359L37.102 16.5168Z" fill="url(#paint1_linear)"/>
<path d="M33.3517 16.3254C29.6397 16.3254 27.0975 18.5905 27.0975 22.7516V26.3377H22.898V31.2013H27.0975V43.6746H32.1173V31.2013H36.305L36.9339 26.3377H32.1173V23.2321C32.1173 21.8244 32.509 20.8648 34.5276 20.8648H37.1019V16.5169C36.6567 16.4576 35.1298 16.3254 33.3517 16.3254V16.3254Z" fill="white"/>
<defs>
<linearGradient id="paint0_linear" x1="54.24" y1="48.48" x2="12" y2="6.24" gradientUnits="userSpaceOnUse">
<stop stop-color="#293250"/>
<stop offset="1" stop-color="#5668A2"/>
</linearGradient>
<linearGradient id="paint1_linear" x1="21.9646" y1="17.389" x2="55.4542" y2="50.8786" gradientUnits="userSpaceOnUse">
<stop stop-color="#1A1A1A"/>
<stop offset="1" stop-color="#1A1A1A" stop-opacity="0"/>
</linearGradient>
</defs>
</svg>
