<svg width="60" height="60" viewBox="0 0 60 60" fill="none" xmlns="http://www.w3.org/2000/svg">
<path d="M60 30C60 33.9396 59.224 37.8407 57.7164 41.4805C56.2087 45.1203 53.999 48.4274 51.2132 51.2132C48.4274 53.9989 45.1203 56.2087 41.4805 57.7164C37.8407 59.224 33.9397 60 30 60C26.0603 60 22.1593 59.224 18.5195 57.7164C14.8797 56.2087 11.5726 53.9989 8.7868 51.2132C6.00104 48.4274 3.79126 45.1203 2.28362 41.4805C0.775974 37.8407 4.46701e-07 33.9396 0 30C0 26.0603 0.775973 22.1593 2.28361 18.5195C3.79126 14.8797 6.00104 11.5725 8.7868 8.78679C11.5726 6.00104 14.8797 3.79125 18.5195 2.28361C22.1593 0.775971 26.0603 -8.93402e-07 30 0C33.9397 -7.94135e-07 37.8407 0.775971 41.4805 2.28361C45.1203 3.79125 48.4274 6.00104 51.2132 8.78679C53.999 11.5725 56.2087 14.8797 57.7164 18.5195C59.224 22.1593 60 26.0603 60 30Z" fill="url(#paint0_linear)"/>
<path opacity="0.708" d="M34.1187 16.4061C34.1187 16.4061 27.5937 16.8186 27.2187 16.8374C26.8437 16.8562 22.9249 16.8562 22.8124 16.8749C22.7 16.8937 19.5687 17.9061 19.5687 17.9061L17.5812 20.5499L16.4749 24.0186L15.95 31.7624L17.45 39.2061L18.7062 41.3061L18.2503 42.655L35.1488 59.5534C41.238 58.4859 46.8487 55.5632 51.2135 51.1852C55.5783 46.8072 58.484 41.1876 59.5332 35.0952L42.3512 17.9132L39.0875 17.1936L34.1187 16.4061Z" fill="url(#paint1_linear)"/>
<path d="M23.7924 15.2954C19.0865 15.2954 15.2595 19.1245 15.2595 23.8305V36.1716C15.2595 40.8775 19.0865 44.7045 23.7924 44.7045H36.2074C40.9134 44.7045 44.7404 40.8775 44.7404 36.1716V23.8305C44.7404 19.1245 40.9134 15.2954 36.2074 15.2954H23.7924ZM23.7924 17.8236H36.2074C39.5568 17.8236 42.2143 20.4812 42.2143 23.8305V36.1716C42.2143 39.5209 39.5568 42.1763 36.2074 42.1763H23.7924C20.4432 42.1763 17.7877 39.5209 17.7877 36.1716V23.8305C17.7877 20.4812 20.4432 17.8236 23.7924 17.8236ZM37.9119 20.3518C36.9353 20.3518 36.1441 21.1431 36.1441 22.1197C36.1441 23.0963 36.9353 23.8875 37.9119 23.8875C38.8885 23.8875 39.6798 23.0963 39.6798 22.1197C39.6798 21.1431 38.8885 20.3518 37.9119 20.3518ZM30 22.428C25.8328 22.428 22.428 25.8328 22.428 30C22.428 34.1671 25.8328 37.5719 30 37.5719C34.1671 37.5719 37.574 34.1671 37.574 30C37.574 25.8328 34.1671 22.428 30 22.428ZM30 24.9562C32.801 24.9562 35.0458 27.1989 35.0458 30C35.0458 32.801 32.801 35.0437 30 35.0437C27.1989 35.0437 24.9562 32.801 24.9562 30C24.9562 27.1989 27.1989 24.9562 30 24.9562Z" fill="white"/>
<defs>
<linearGradient id="paint0_linear" x1="56.025" y1="52.725" x2="4.35002" y2="1.05" gradientUnits="userSpaceOnUse">
<stop stop-color="#FF0066"/>
<stop offset="1" stop-color="#FFCC00"/>
</linearGradient>
<linearGradient id="paint1_linear" x1="19.5499" y1="10.2298" x2="57.1711" y2="47.8509" gradientUnits="userSpaceOnUse">
<stop stop-color="#1A1A1A"/>
<stop offset="1" stop-color="#1A1A1A" stop-opacity="0"/>
</linearGradient>
</defs>
</svg>
