<svg width="60" height="60" viewBox="0 0 60 60" fill="none" xmlns="http://www.w3.org/2000/svg">
<path d="M60 30C60 33.9397 59.224 37.8407 57.7164 41.4805C56.2087 45.1203 53.999 48.4275 51.2132 51.2132C48.4274 53.999 45.1203 56.2087 41.4805 57.7164C37.8407 59.224 33.9397 60 30 60C26.0603 60 22.1593 59.224 18.5195 57.7164C14.8797 56.2087 11.5726 53.999 8.7868 51.2132C6.00104 48.4275 3.79126 45.1203 2.28362 41.4805C0.775974 37.8407 4.46701e-07 33.9397 0 30C0 26.0603 0.775973 22.1593 2.28361 18.5195C3.79126 14.8797 6.00104 11.5726 8.7868 8.7868C11.5726 6.00104 14.8797 3.79125 18.5195 2.28361C22.1593 0.775971 26.0603 -9.43035e-07 30 0C33.9397 -7.44501e-07 37.8407 0.775972 41.4805 2.28361C45.1203 3.79125 48.4274 6.00104 51.2132 8.7868C53.999 11.5726 56.2087 14.8797 57.7164 18.5195C59.224 22.1593 60 26.0603 60 30Z" fill="url(#paint0_linear)"/>
<path d="M41.3357 18.7065L36.5322 19.8749L20.1072 19.9124L19.2822 32.9624L20.6322 40.2374L18.7396 41.3706L36.5967 59.2276C42.1208 57.9789 47.1786 55.1919 51.1851 51.1891C55.1917 47.1862 57.9834 42.1311 59.2373 36.6081L41.3357 18.7065Z" fill="url(#paint1_linear)"/>
<path d="M19.9597 18.1444C18.9979 18.1444 18.217 18.9029 18.217 19.8409V40.1592C18.217 41.0975 18.9979 41.8557 19.9597 41.8557H40.0403C41.0021 41.8557 41.783 41.0975 41.783 40.1592V19.8409C41.783 18.9029 41.0021 18.1444 40.0403 18.1444H19.9597ZM23.6035 22.1249C24.8212 22.1249 25.5673 22.9224 25.5904 23.9732C25.5904 25.0009 24.8184 25.8215 23.5771 25.8215H23.5567C22.3622 25.8215 21.5895 25.0009 21.5895 23.9732C21.5895 22.9224 22.3853 22.1249 23.6029 22.1249H23.6035ZM34.0993 27.0361C36.4411 27.0361 38.192 28.5657 38.192 31.855V37.994H34.634V32.2642C34.634 30.8246 34.1199 29.8416 32.8319 29.8416C31.8486 29.8416 31.2607 30.5092 31.0034 31.1486C30.9095 31.3774 30.8911 31.6933 30.8911 32.0134V37.994H27.3265C27.3265 37.994 27.3732 28.2918 27.3265 27.287H30.8911V28.7986C31.3643 28.069 32.2119 27.0361 34.0993 27.0361H34.0993ZM30.8912 28.7986C30.8821 28.8113 30.873 28.8257 30.8648 28.8383H30.8912V28.7986ZM21.8014 27.287H25.3594V37.994H21.8014V27.287Z" fill="white"/>
<defs>
<linearGradient id="paint0_linear" x1="54.24" y1="48.48" x2="12" y2="6.24001" gradientUnits="userSpaceOnUse">
<stop stop-color="#00112B"/>
<stop offset="1" stop-color="#4484E5"/>
</linearGradient>
<linearGradient id="paint1_linear" x1="26.3767" y1="24.5613" x2="60.2452" y2="58.4299" gradientUnits="userSpaceOnUse">
<stop stop-color="#1A1A1A"/>
<stop offset="1" stop-color="#1A1A1A" stop-opacity="0"/>
</linearGradient>
</defs>
</svg>
