<svg width="60" height="60" viewBox="0 0 60 60" fill="none" xmlns="http://www.w3.org/2000/svg">
<path d="M60 30C60 33.9396 59.224 37.8407 57.7164 41.4805C56.2087 45.1203 53.999 48.4274 51.2132 51.2132C48.4274 53.9989 45.1203 56.2087 41.4805 57.7164C37.8407 59.224 33.9397 60 30 60C26.0603 60 22.1593 59.224 18.5195 57.7164C14.8797 56.2087 11.5726 53.9989 8.7868 51.2132C6.00104 48.4274 3.79126 45.1203 2.28362 41.4805C0.775974 37.8407 4.46701e-07 33.9396 0 30C0 26.0603 0.775973 22.1593 2.28361 18.5195C3.79126 14.8797 6.00104 11.5725 8.7868 8.78679C11.5726 6.00104 14.8797 3.79125 18.5195 2.28361C22.1593 0.775971 26.0603 -9.43035e-07 30 0C33.9397 -8.43768e-07 37.8407 0.775971 41.4805 2.28361C45.1203 3.79125 48.4274 6.00104 51.2132 8.78679C53.999 11.5725 56.2087 14.8797 57.7164 18.5195C59.224 22.1593 60 26.0603 60 30Z" fill="url(#paint0_linear)"/>
<path opacity="0.68" d="M42.5226 19.6257L36.95 24.05L31.15 29.9L28.55 37.65L23.25 39.0499L16.7445 38.3289L37.4515 59.0359C42.831 57.6535 47.7211 54.805 51.5772 50.8074C55.4332 46.8098 58.1038 41.8203 59.2914 36.3945L42.5226 19.6257Z" fill="url(#paint1_linear)"/>
<path d="M43.2554 21.778C42.2805 22.2107 41.2321 22.5031 40.1321 22.6348C41.2548 21.9614 42.1168 20.8956 42.5229 19.6259C41.4722 20.2494 40.3086 20.7017 39.0692 20.9454C38.0775 19.8887 36.664 19.2281 35.0997 19.2281C32.0959 19.2281 29.6612 21.663 29.6612 24.6667C29.6612 25.0931 29.7091 25.5083 29.802 25.9061C25.2818 25.6796 21.2744 23.5137 18.5919 20.2236C18.1237 21.0265 17.8555 21.9606 17.8555 22.9575C17.8555 24.8446 18.8153 26.509 20.275 27.4847C19.3836 27.4568 18.5448 27.2121 17.8115 26.8044C17.8105 26.8274 17.8105 26.8499 17.8105 26.8728C17.8105 29.5083 19.6854 31.706 22.1732 32.206C21.7172 32.3303 21.2369 32.396 20.7408 32.396C20.39 32.396 20.0499 32.3628 19.7172 32.2991C20.4098 34.4597 22.4179 36.0324 24.7983 36.0764C22.9354 37.5353 20.5907 38.4044 18.0424 38.4044C17.6037 38.4044 17.1704 38.3785 16.7446 38.3286C19.1525 39.8717 22.0109 40.7717 25.0826 40.7717C35.0862 40.7717 40.5559 32.4847 40.5559 25.2972C40.5559 25.0615 40.5513 24.8274 40.54 24.5941C41.6022 23.8267 42.5241 22.8691 43.2537 21.7782" fill="white"/>
<defs>
<linearGradient id="paint0_linear" x1="8.40003" y1="10.8" x2="50.6" y2="53" gradientUnits="userSpaceOnUse">
<stop stop-color="#00CCFF"/>
<stop offset="1" stop-color="#004ED1"/>
</linearGradient>
<linearGradient id="paint1_linear" x1="23.2445" y1="18.0308" x2="55.518" y2="50.3042" gradientUnits="userSpaceOnUse">
<stop stop-color="#1A1A1A"/>
<stop offset="1" stop-color="#1A1A1A" stop-opacity="0"/>
</linearGradient>
</defs>
</svg>
